<?xml version="1.0" encoding="iso-8859-1"?>
<!-- Generator: Adobe Illustrator 19.0.0, SVG Export Plug-In . SVG Version: 6.00 Build 0)  -->
<svg version="1.1" id="Layer_1" xmlns="http://www.w3.org/2000/svg" xmlns:xlink="http://www.w3.org/1999/xlink" x="0px" y="0px"
	 viewBox="0 0 512 512" style="enable-background:new 0 0 512 512;" xml:space="preserve">
<path style="fill:#FA6E51;" d="M0,256.006C0,397.402,114.606,512.004,255.996,512C397.394,512.004,512,397.402,512,256.006
	C512.009,114.61,397.394,0,255.996,0C114.606,0,0,114.614,0,256.006z"/>
<path style="fill:#E8573F;" d="M512,256.006c0.001-14.581-1.236-28.87-3.577-42.786c-0.878-5.221-116.39-114.475-116.913-114.946
	c-1.196-1.867-3.156-3.106-5.359-3.379L266.686,79.962c-2.851-0.383-5.564,0.911-7.132,3.255
	c-24.85,37.122-30.165,131.042-30.996,150.019l-64.385,57.254c-2.553,1.948-62.388,48.278-39.763,105.747
	c3.323,8.443,7.83,15.342,13.335,20.857c0.471,0.513,63.853,64.534,70.57,71.167c4.271,4.218,17.747,22.053,23.386,22.585
	c7.999,0.753,16.1,1.154,24.297,1.154C397.394,512.004,512,397.402,512,256.006z"/>
<path style="fill:#F4F6F9;" d="M391.51,98.274c-1.196-1.867-3.157-3.106-5.359-3.379L266.685,79.962
	c-2.851-0.383-5.564,0.911-7.132,3.255c-24.85,37.122-30.165,131.042-30.997,150.019l-64.385,57.254
	c-2.553,1.947-62.387,48.278-39.761,105.747c6.278,15.954,16.53,26.761,30.458,32.119c7.081,2.723,14.437,3.748,21.518,3.748
	c20.963,0,39.404-9.005,40.432-9.516c0.241-0.121,0.481-0.259,0.715-0.404l103.914-66.802c7.212-2.931,49.489-22.739,42.219-81.302
	c-6.956-56.051,28.321-168.394,28.678-169.524C393.012,102.442,392.706,100.141,391.51,98.274z M269.601,95.376l105.897,13.234
	c-1.856,6.249-4.54,15.634-7.494,26.832l-107.408-18.31C263.201,108.874,266.179,101.427,269.601,95.376z M209.846,409.374
	c-3.186,1.494-28.933,13.008-49.613,5.045c-10.004-3.85-17.179-11.586-21.926-23.65c-8.516-21.629-1.834-41.957,7.897-57.726
	c13.107,1.987,56.887,12.828,76.812,67.863L209.846,409.374z M348.847,275.918c6.366,51.293-31.623,65.158-33.214,65.712
	c-0.576,0.193-1.131,0.46-1.648,0.791l-78.017,50.158c-19.987-51.454-60.023-67.698-80.274-72.706
	c9.02-10.836,17.571-17.551,17.955-17.855l67.2-59.733c1.532-1.36,2.435-3.289,2.501-5.338c0.028-0.798,2.131-59.74,13.246-105.347
	L364.29,149.96C354.763,188.644,344.547,241.26,348.847,275.918z"/>
<g>
</g>
<g>
</g>
<g>
</g>
<g>
</g>
<g>
</g>
<g>
</g>
<g>
</g>
<g>
</g>
<g>
</g>
<g>
</g>
<g>
</g>
<g>
</g>
<g>
</g>
<g>
</g>
<g>
</g>
</svg>
